#!OML:ASF H:\MichaelJackson\Top Level 1\Subject 1\Session 1\male.ASF
:FULLY-SPECIFIED
:DEGREES
334
root -8.77038 16.53 -30.327 -178.344 -23.6477 -171.369
lowerback 6.84063 -4.31172 -4.8876
upperback 0.423844 -6.25383 6.76125
thorax -2.09949 -3.21927 10.4278
lowerneck -5.22036 -7.63872 0.638875
upperneck 5.68101 -10.3518 0.712435
head 2.70959 -5.12131 -0.286992
rclavicle -3.84648e-014 -3.89618e-014
rhumerus -26.2295 11.0576 -77.4146
rradius 60.2302
rwrist 15.8509
rhand -47.2744 -25.9523
rfingers 7.12502
rthumb -19.9711 -54.946
lclavicle -3.84648e-014 -3.89618e-014
lhumerus -68.1086 19.3412 90.5432
lradius 67.883
lwrist 22.4937
lhand -41.3006 -14.9295
lfingers 7.12502
lthumb -14.2213 14.5636
rfemur -19.6296 -9.60436 28.4309
rtibia 40.8153
rfoot -25.4154 -0.981278
rtoes 20.8479
lfemur -35.0776 7.76909 -15.3361
ltibia 53.391
lfoot -21.8067 0.559064
ltoes 8.78027
335
root -8.73939 16.5316 -30.2904 -178.408 -23.0154 -170.933
lowerback 6.76531 -4.12079 -4.54919
upperback 0.462858 -5.9861 6.86682
thorax -2.0968 -3.09576 10.3243
lowerneck -4.86847 -7.55065 0.708814
upperneck 5.28891 -10.2216 0.688834
head 2.50743 -5.06084 -0.272067
rclavicle 9.54663e-014 9.93923e-015
rhumerus -26.0476 11.4156 -78.0815
rradius 59.995
rwrist 14.7147
rhand -47.4017 -25.554
rfingers 7.12502
rthumb -20.0934 -54.535
lclavicle 9.54663e-014 9.93923e-015
lhumerus -68.3703 19.9109 90.9285
lradius 68.0043
lwrist 22.1968
lhand -41.254 -14.3428
lfingers 7.12502
lthumb -14.1764 15.1535
rfemur -19.8626 -9.4521 29.0302
rtibia 40.6405
rfoot -24.9776 -0.867131
rtoes 20.9644
lfemur -35.6838 8.31842 -14.8858
ltibia 54.1882
lfoot -21.3569 0.766438
ltoes 9.46467
336
root -8.70865 16.5345 -30.2525 -178.475 -22.3399 -170.55
lowerback 6.73756 -3.91492 -4.25998
upperback 0.49486 -5.70133 6.9517
thorax -2.12673 -2.96048 10.2309
lowerneck -4.49724 -7.44819 0.794661
upperneck 4.93456 -10.074 0.647305
head 2.31443 -4.99186 -0.265628
rclavicle 2.50469e-014 -1.23246e-014
rhumerus -25.6038 11.7981 -78.6626
rradius 59.1717
rwrist 14.6555
rhand -47.4593 -25.7326
rfingers 7.12502
rthumb -20.1488 -54.7077
lclavicle 2.50469e-014 -1.23246e-014
lhumerus -68.6243 20.2381 91.3578
lradius 68.1378
lwrist 22.1632
lhand -40.8986 -14.1256
lfingers 7.12502
lthumb -13.8339 15.3944
rfemur -20.0488 -9.36657 29.5353
rtibia 40.4455
rfoot -24.7095 -0.545229
rtoes 20.406
lfemur -36.2897 8.97806 -14.5085
ltibia 55.0459
lfoot -20.9293 1.02403
ltoes 9.86208
337
root -8.67837 16.5395 -30.214 -178.571 -21.6713 -170.227
lowerback 6.74658 -3.69589 -3.99265
upperback 0.605574 -5.4053 7.01447
thorax -2.09513 -2.825 10.123
lowerneck -4.38402 -7.35639 0.878928
upperneck 4.65933 -9.9438 0.609426
head 2.1962 -4.92852 -0.273162
rclavicle 2.5345e-014 1.86858e-014
rhumerus -25.0532 11.8217 -79.1533
rradius 58.511
rwrist 15.8201
rhand -47.3322 -26.4646
rfingers 7.12502
rthumb -20.0266 -55.4526
lclavicle 2.5345e-014 1.86858e-014
lhumerus -68.7133 20.4862 91.8031
lradius 68.0736
lwrist 22.0389
lhand -40.3187 -13.6613
lfingers 7.12502
lthumb -13.275 15.896
rfemur -20.1584 -9.30121 29.9451
rtibia 40.242
rfoot -24.4259 -0.216467
rtoes 19.4363
lfemur -36.814 9.52395 -14.1514
ltibia 55.9379
lfoot -20.5141 1.38165
ltoes 10.6605
338
root -8.65022 16.5463 -30.1756 -178.693 -21.0045 -169.969
lowerback 6.77541 -3.47948 -3.81478
upperback 0.73632 -5.12227 7.09078
thorax -2.03991 -2.69776 10.0833
lowerneck -4.30528 -7.26585 0.9563
upperneck 4.48329 -9.81515 0.508345
head 2.1145 -4.86705 -0.303711
rclavicle -2.61402e-014 -4.45278e-014
rhumerus -24.1724 11.8346 -79.3985
rradius 57.3583
rwrist 18.0052
rhand -46.8072 -27.8351
rfingers 7.12502
rthumb -19.522 -56.875
lclavicle -2.61402e-014 -4.45278e-014
lhumerus -68.733 20.6253 92.3388
lradius 67.9694
lwrist 21.9712
lhand -39.7273 -13.7104
lfingers 7.12502
lthumb -12.7049 15.8832
rfemur -20.2159 -9.22619 30.261
rtibia 40.0342
rfoot -24.0206 0.302404
rtoes 19.4428
lfemur -37.2791 10.0626 -13.8332
ltibia 56.8456
lfoot -19.8926 1.62526
ltoes 11.2189
339
root -8.62507 16.5551 -30.1377 -178.839 -20.3377 -169.779
lowerback 6.84597 -3.26986 -3.69159
upperback 0.851168 -4.84931 7.14146
thorax -2.01947 -2.57155 10.0521
lowerneck -4.17772 -7.18061 1.02839
upperneck 4.35078 -9.69651 0.430778
head 2.04044 -4.81029 -0.325802
rclavicle 5.74985e-014 -4.8901e-014
rhumerus -23.5542 11.979 -79.7734
rradius 56.3268
rwrist 19.5675
rhand -47.0258 -27.5852
rfingers 7.12502
rthumb -19.7321 -56.6036
lclavicle 5.74985e-014 -4.8901e-014
lhumerus -68.8423 20.6255 92.9011
lradius 67.9529
lwrist 21.9387
lhand -39.222 -13.2793
lfingers 7.12502
lthumb -12.2177 16.3439
rfemur -20.1863 -9.18583 30.4977
rtibia 39.812
rfoot -23.8167 0.800406
rtoes 18.74
lfemur -37.6715 10.437 -13.5149
ltibia 57.7778
lfoot -19.0211 1.84355
ltoes 10.8926
340
root -8.60164 16.5679 -30.0977 -178.901 -19.644 -169.655
lowerback 6.9078 -3.05305 -3.63509
upperback 0.94229 -4.56949 7.19923
thorax -2.01388 -2.43962 10.0675
lowerneck -4.20211 -7.10001 1.09472
upperneck 4.37679 -9.58618 0.294527
head 2.04313 -4.75737 -0.376619
rclavicle -6.31141e-014 4.92986e-014
rhumerus -22.7957 12.3398 -80.0724
rradius 55.2388
rwrist 20.5087
rhand -46.8828 -27.9483
rfingers 7.12502
rthumb -19.5946 -56.9808
lclavicle -6.31141e-014 4.92986e-014
lhumerus -68.9562 20.5667 93.4539
lradius 67.8468
lwrist 21.9022
lhand -38.4264 -12.9129
lfingers 7.12502
lthumb -11.4505 16.7544
rfemur -20.2294 -9.12863 30.6807
rtibia 39.5997
rfoot -23.4674 1.37086
rtoes 18.7919
lfemur -38.0985 10.6669 -13.2069
ltibia 58.7342
lfoot -18.0281 1.93611
ltoes 11.1339
341
root -8.58238 16.5798 -30.0578 -178.938 -18.8696 -169.602
lowerback 6.96128 -2.81518 -3.62632
upperback 1.02532 -4.26198 7.23854
thorax -2.01558 -2.29155 10.0879
lowerneck -4.2257 -7.00687 1.19852
upperneck 4.4449 -9.46073 0.118783
head 2.05599 -4.69733 -0.446329
rclavicle 0 -1.59028e-015
rhumerus -22.1969 12.7758 -80.4034
rradius 54.1667
rwrist 21.1287
rhand -47.2032 -27.774
rfingers 7.12502
rthumb -19.9026 -56.7749
lclavicle 0 -1.59028e-015
lhumerus -69.1248 20.4746 93.974
lradius 67.7608
lwrist 21.8367
lhand -37.7861 -12.4187
lfingers 7.12502
lthumb -10.833 17.2819
rfemur -20.2644 -9.07295 30.8057
rtibia 39.3886
rfoot -23.0862 1.82797
rtoes 18.4914
lfemur -38.4885 10.8371 -12.8974
ltibia 59.7352
lfoot -16.9821 1.90204
ltoes 10.2218
342
root -8.56517 16.5891 -30.0173 -178.92 -18.1516 -169.622
lowerback 7.02363 -2.60586 -3.6729
upperback 1.04629 -3.98858 7.25553
thorax -2.07859 -2.15306 10.1216
lowerneck -4.14343 -6.97082 1.21578
upperneck 4.50025 -9.41361 0.0878983
head 2.05726 -4.67491 -0.455202
rclavicle 1.60519e-014 9.54166e-015
rhumerus -21.7681 13.2803 -80.7354
rradius 53.2864
rwrist 21.3921
rhand -47.3765 -27.7179
rfingers 7.12502
rthumb -20.0692 -56.7014
lclavicle 1.60519e-014 9.54166e-015
lhumerus -69.4453 20.3159 94.4503
lradius 67.8212
lwrist 21.918
lhand -37.197 -11.9195
lfingers 7.12502
lthumb -10.2647 17.81
rfemur -20.3607 -9.00661 30.8788
rtibia 39.2135
rfoot -22.4926 2.18241
rtoes 19.1043
lfemur -38.884 10.7599 -12.5952
ltibia 60.7816
lfoot -15.8969 1.74234
ltoes 8.98143
343
root -8.55018 16.6024 -29.9762 -178.846 -17.4994 -169.713
lowerback 7.07791 -2.41623 -3.73771
upperback 1.05495 -3.73681 7.22556
thorax -2.14821 -2.02169 10.1142
lowerneck -4.22247 -6.93482 1.3066
upperneck 4.68393 -9.37371 0.0174763
head 2.12408 -4.6545 -0.499002
rclavicle 8.22472e-014 3.73715e-014
rhumerus -21.4449 13.7044 -81.1038
rradius 52.507
rwrist 21.4708
rhand -47.3648 -27.3432
rfingers 7.12502
rthumb -20.058 -56.3279
lclavicle 8.22472e-014 3.73715e-014
lhumerus -69.7594 20.0953 94.8262
lradius 67.8244
lwrist 22.0128
lhand -36.6162 -11.8084
lfingers 7.12502
lthumb -9.70437 17.948
rfemur -20.5203 -9.00391 30.8889
rtibia 39.0949
rfoot -22.212 2.50958
rtoes 18.6814
lfemur -39.2904 10.5242 -12.3348
ltibia 61.8538
lfoot -14.808 1.36199
ltoes 8.52277
344
root -8.5417 16.612 -29.9346 -178.735 -16.8207 -169.832
lowerback 7.06567 -2.22955 -3.74497
upperback 1.0535 -3.48076 7.15993
thorax -2.19801 -1.88723 10.0273
lowerneck -4.19078 -6.90791 1.38418
upperneck 4.77862 -9.34475 -0.004546
head 2.14488 -4.63957 -0.518712
rclavicle 5.97348e-014 -6.55989e-014
rhumerus -21.2313 14.1167 -81.4733
rradius 51.7938
rwrist 21.4891
rhand -46.9688 -26.6995
rfingers 7.12502
rthumb -19.6773 -55.7236
lclavicle 5.97348e-014 -6.55989e-014
lhumerus -70.1191 19.8481 95.1188
lradius 67.8834
lwrist 22.0627
lhand -36.1738 -11.4164
lfingers 7.12502
lthumb -9.2775 18.3595
rfemur -20.7252 -8.91723 30.8473
rtibia 39.0265
rfoot -21.9242 2.71209
rtoes 17.7206
lfemur -39.7014 10.325 -12.1081
ltibia 62.9762
lfoot -13.4979 0.935894
ltoes 7.53045
345
root -8.54201 16.6252 -29.8882 -178.358 -16.2482 -170.31
lowerback 6.95402 -2.09894 -3.93546
upperback 0.959652 -3.28963 6.96464
thorax -2.27275 -1.77019 9.90608
lowerneck -4.09924 -6.8904 1.46347
upperneck 4.83075 -9.32881 0.00655203
head 2.14241 -4.63085 -0.525012
rclavicle 5.41688e-015 5.00937e-014
rhumerus -21.1868 14.6276 -81.9114
rradius 51.1918
rwrist 21.3931
rhand -46.9028 -26.546
rfingers 7.12502
rthumb -19.6138 -55.5765
lclavicle 5.41688e-015 5.00937e-014
lhumerus -70.5631 19.6149 95.2943
lradius 67.988
lwrist 22.1032
lhand -35.7744 -11.3795
lfingers 7.12502
lthumb -8.8921 18.4131
rfemur -21.1654 -9.22824 30.4317
rtibia 38.9925
rfoot -21.4795 3.27455
rtoes 17.1933
lfemur -40.2541 9.93907 -12.3257
ltibia 64.083
lfoot -12.2134 0.550964
ltoes 6.73646
346
root -8.53747 16.6338 -29.8465 -178.177 -15.5398 -170.459
lowerback 6.87479 -1.90736 -3.90739
upperback 0.944176 -3.01972 6.85952
thorax -2.30533 -1.62745 9.74918
lowerneck -4.04655 -6.88626 1.49616
upperneck 4.80844 -9.33084 0.111888
head 2.12935 -4.62924 -0.494972
rclavicle -1.35174e-014 -2.5842e-014
rhumerus -21.1531 15.1243 -82.365
rradius 50.5604
rwrist 21.408
rhand -47.1795 -27.1955
rfingers 7.12502
rthumb -19.8798 -56.1987
lclavicle -1.35174e-014 -2.5842e-014
lhumerus -70.9769 19.4101 95.3921
lradius 68.1266
lwrist 21.9701
lhand -35.4421 -11.232
lfingers 7.12502
lthumb -8.5714 18.574
rfemur -21.4977 -9.20195 30.3784
rtibia 38.9749
rfoot -21.1132 3.54945
rtoes 16.5312
lfemur -40.6974 9.74783 -12.1308
ltibia 65.2039
lfoot -10.8905 0.0668356
ltoes 5.0224
347
root -8.53549 16.6432 -29.8045 -178.024 -14.8491 -170.518
lowerback 6.81223 -1.72368 -3.75235
upperback 0.923618 -2.75462 6.76756
thorax -2.35548 -1.48905 9.53337
lowerneck -4.00717 -6.87723 1.51155
upperneck 4.7698 -9.32569 0.2337
head 2.11508 -4.62393 -0.457067
rclavicle -7.70291e-015 -4.25399e-014
rhumerus -21.0771 15.2523 -82.6789
rradius 50.0429
rwrist 23.1039
rhand -46.9762 -27.6564
rfingers 7.12502
rthumb -19.6844 -56.6798
lclavicle -7.70291e-015 -4.25399e-014
lhumerus -71.4624 19.2511 95.3458
lradius 68.3143
lwrist 21.7611
lhand -35.1178 -11.2474
lfingers 7.12502
lthumb -8.25847 18.5712
rfemur -21.8436 -9.19297 30.4207
rtibia 38.9724
rfoot -20.6774 3.95218
rtoes 16.7776
lfemur -41.0998 9.51284 -11.847
ltibia 66.2554
lfoot -9.57482 -0.295547
ltoes 4.33107
